G04 MADE WITH FRITZING*
G04 WWW.FRITZING.ORG*
G04 DOUBLE SIDED*
G04 HOLES PLATED*
G04 CONTOUR ON CENTER OF CONTOUR VECTOR*
%ASAXBY*%
%FSLAX23Y23*%
%MOIN*%
%OFA0B0*%
%SFA1.0B1.0*%
%ADD10C,0.085000*%
%ADD11C,0.049370*%
%ADD12C,0.088000*%
%ADD13C,0.080000*%
%ADD14C,0.092000*%
%ADD15C,0.110000*%
%ADD16C,0.167000*%
%ADD17C,0.130000*%
%ADD18C,0.083749*%
%ADD19C,0.090000*%
%ADD20C,0.072992*%
%ADD21C,0.076000*%
%ADD22R,0.088000X0.088000*%
%ADD23R,0.085000X0.085000*%
%ADD24R,0.092000X0.092000*%
%ADD25R,0.072992X0.072992*%
%ADD26R,0.079972X0.080000*%
%LNMASK0*%
G90*
G70*
G54D10*
X1408Y905D03*
X1408Y1305D03*
X1308Y905D03*
X1308Y1305D03*
X1208Y905D03*
X1208Y1305D03*
X1108Y905D03*
X1108Y1305D03*
X1708Y2105D03*
X1308Y2105D03*
X1708Y2205D03*
X1308Y2205D03*
X1708Y2305D03*
X1308Y2305D03*
X1708Y2405D03*
X1308Y2405D03*
X1633Y1405D03*
X1533Y1405D03*
X1433Y1405D03*
X1533Y1580D03*
X1433Y1580D03*
X1333Y1580D03*
X1433Y1755D03*
X1333Y1755D03*
X1233Y1755D03*
X1333Y1930D03*
X1233Y1930D03*
X1133Y1930D03*
X2883Y4205D03*
X3283Y4205D03*
X1908Y1155D03*
X1908Y755D03*
X2008Y1155D03*
X2008Y755D03*
X1808Y1155D03*
X1808Y755D03*
X1708Y1155D03*
X1708Y755D03*
X1608Y1155D03*
X1608Y755D03*
X1508Y1155D03*
X1508Y755D03*
X4183Y1880D03*
X4283Y1880D03*
X4383Y1880D03*
X4183Y2080D03*
X4283Y2080D03*
X4383Y2080D03*
X4183Y2280D03*
X4283Y2280D03*
X4383Y2280D03*
X4183Y2480D03*
X4283Y2480D03*
X4383Y2480D03*
X4183Y2680D03*
X4283Y2680D03*
X4383Y2680D03*
X4183Y2880D03*
X4283Y2880D03*
X4383Y2880D03*
X4183Y3430D03*
X4183Y3030D03*
X4283Y3430D03*
X4283Y3030D03*
X4383Y3430D03*
X4383Y3030D03*
X4683Y3180D03*
X4683Y2780D03*
X4783Y3180D03*
X4783Y2780D03*
X4883Y3180D03*
X4883Y2780D03*
G54D11*
X508Y2530D03*
G54D12*
X1108Y5280D03*
X1008Y5280D03*
G54D11*
X483Y1630D03*
G54D10*
X4508Y5205D03*
X4508Y5605D03*
X4408Y5205D03*
X4408Y5605D03*
G54D13*
X4408Y4880D03*
X4508Y4880D03*
G54D11*
X208Y1455D03*
X208Y1605D03*
G54D10*
X5008Y805D03*
X5008Y705D03*
G54D11*
X4808Y4805D03*
G54D12*
X5208Y2880D03*
X5208Y2780D03*
X5208Y2680D03*
X5208Y2580D03*
X5208Y3980D03*
X5208Y3880D03*
X5208Y3780D03*
X5208Y3680D03*
G54D14*
X3708Y1807D03*
X3708Y2105D03*
G54D12*
X2033Y380D03*
X2033Y280D03*
G54D13*
X2383Y4005D03*
X2283Y4005D03*
G54D14*
X4583Y2080D03*
X4583Y1980D03*
X4583Y1880D03*
G54D10*
X2283Y905D03*
X2283Y1105D03*
G54D12*
X3533Y630D03*
X3533Y530D03*
X3533Y430D03*
X3533Y330D03*
G54D10*
X3333Y3380D03*
X3333Y3780D03*
G54D13*
X4733Y5205D03*
X4633Y5205D03*
G54D14*
X4583Y1630D03*
X4583Y1530D03*
X4583Y1430D03*
X5333Y1630D03*
X5333Y1530D03*
X5333Y1430D03*
G54D12*
X4708Y4680D03*
X4808Y4680D03*
X4908Y4680D03*
X5008Y4680D03*
X5108Y4680D03*
X5208Y4680D03*
X5208Y4480D03*
X5208Y4380D03*
X5208Y4280D03*
X5208Y4180D03*
G54D14*
X1833Y2730D03*
X1933Y2730D03*
X2033Y2730D03*
G54D13*
X4683Y3805D03*
X4583Y3805D03*
X1358Y4755D03*
X1258Y4755D03*
G54D10*
X4183Y1155D03*
X4183Y1055D03*
X4183Y955D03*
G54D14*
X5333Y1180D03*
X5333Y1080D03*
X5333Y980D03*
G54D10*
X2708Y905D03*
X2708Y1105D03*
G54D14*
X2458Y2428D03*
X2458Y2130D03*
G54D13*
X3183Y5480D03*
X3183Y5580D03*
X1708Y1580D03*
X1708Y1480D03*
G54D14*
X4983Y1180D03*
X4983Y1080D03*
X4983Y980D03*
G54D10*
X3658Y3230D03*
X3658Y3030D03*
X1408Y2955D03*
X1408Y2755D03*
G54D12*
X1633Y5755D03*
X1533Y5755D03*
G54D13*
X4583Y3155D03*
X4583Y3255D03*
G54D10*
X3933Y1005D03*
X3933Y1405D03*
G54D14*
X4983Y1630D03*
X4983Y1530D03*
X4983Y1430D03*
G54D10*
X3558Y905D03*
X3558Y1105D03*
G54D13*
X5008Y4880D03*
X5108Y4880D03*
G54D15*
X1308Y480D03*
X508Y480D03*
G54D16*
X1108Y180D03*
X708Y180D03*
G54D17*
X1208Y580D03*
X1008Y580D03*
X808Y580D03*
X608Y580D03*
G54D12*
X4058Y355D03*
X4058Y255D03*
G54D14*
X4983Y2080D03*
X4983Y1980D03*
X4983Y1880D03*
G54D13*
X1058Y2505D03*
X1058Y2405D03*
G54D12*
X1808Y380D03*
X1808Y280D03*
G54D14*
X5333Y2080D03*
X5333Y1980D03*
X5333Y1880D03*
G54D12*
X4308Y5005D03*
X4408Y5005D03*
X4508Y5005D03*
X4608Y5005D03*
X4708Y5005D03*
G54D10*
X3133Y905D03*
X3133Y1105D03*
G54D13*
X2808Y4780D03*
X2708Y4780D03*
G54D12*
X2783Y630D03*
X2783Y530D03*
X2783Y430D03*
X2783Y330D03*
X2533Y630D03*
X2533Y530D03*
X2533Y430D03*
X2533Y330D03*
G54D10*
X3433Y3380D03*
X3433Y3780D03*
G54D12*
X1808Y630D03*
X1808Y530D03*
X5058Y555D03*
X5058Y455D03*
X5058Y355D03*
X5058Y255D03*
G54D10*
X3033Y3580D03*
X3033Y3980D03*
X1583Y3455D03*
X1583Y3855D03*
G54D13*
X4033Y3755D03*
X4033Y3855D03*
G54D12*
X2708Y4630D03*
X2708Y4530D03*
X2708Y4430D03*
X2708Y4330D03*
X2708Y4230D03*
X2708Y4130D03*
G54D10*
X2283Y3280D03*
X2283Y2980D03*
X2183Y3280D03*
X2183Y2980D03*
X2083Y3280D03*
X2083Y2980D03*
X1983Y3280D03*
X1983Y2980D03*
X1883Y3280D03*
X1883Y2980D03*
X1783Y3280D03*
X1783Y2980D03*
X1683Y3280D03*
X1683Y2980D03*
G54D12*
X2033Y630D03*
X2033Y530D03*
G54D18*
X908Y5755D03*
X808Y5755D03*
X608Y5755D03*
G54D13*
X2933Y3705D03*
X2933Y3805D03*
G54D10*
X2183Y3430D03*
X1783Y3430D03*
G54D13*
X3458Y4505D03*
X3558Y4505D03*
G54D12*
X3033Y630D03*
X3033Y530D03*
X3033Y430D03*
X3033Y330D03*
G54D19*
X2608Y1630D03*
X3008Y1630D03*
G54D10*
X4133Y4005D03*
X4133Y3605D03*
G54D12*
X4483Y255D03*
X4483Y355D03*
X4483Y455D03*
X4483Y555D03*
G54D10*
X633Y905D03*
X233Y905D03*
X4208Y1680D03*
X4208Y1280D03*
G54D12*
X533Y4630D03*
X533Y4530D03*
X533Y4430D03*
X533Y4330D03*
X533Y4230D03*
X533Y4130D03*
G54D14*
X4583Y1180D03*
X4583Y1080D03*
X4583Y980D03*
G54D10*
X283Y2930D03*
X683Y2930D03*
X2383Y3505D03*
X2383Y3905D03*
G54D20*
X1184Y5755D03*
X1283Y5755D03*
G54D13*
X333Y2705D03*
X333Y2605D03*
X333Y2505D03*
X333Y2405D03*
X333Y2305D03*
X333Y2205D03*
X333Y2105D03*
X333Y2005D03*
X333Y1905D03*
X333Y1805D03*
X333Y1705D03*
X333Y1605D03*
X333Y1505D03*
X333Y1405D03*
X333Y1305D03*
X933Y2705D03*
X933Y2605D03*
X933Y2505D03*
X933Y2405D03*
X933Y2305D03*
X933Y2205D03*
X933Y2105D03*
X933Y2005D03*
X933Y1905D03*
X933Y1805D03*
X933Y1705D03*
X933Y1605D03*
X933Y1505D03*
X933Y1405D03*
X933Y1305D03*
G54D10*
X4233Y4005D03*
X4233Y3605D03*
X2258Y2080D03*
X2258Y1680D03*
X1858Y2380D03*
X2258Y2380D03*
G54D12*
X3508Y4730D03*
X3608Y4730D03*
X3708Y4730D03*
X3808Y4730D03*
X3908Y4730D03*
G54D10*
X1683Y3455D03*
X1683Y3855D03*
X583Y5455D03*
X983Y5455D03*
G54D12*
X4833Y555D03*
X4833Y455D03*
X4833Y355D03*
X4833Y255D03*
X5208Y3380D03*
X5208Y3280D03*
X5208Y3180D03*
X5208Y3080D03*
G54D10*
X4283Y780D03*
X4183Y780D03*
G54D12*
X3883Y355D03*
X3883Y255D03*
X3283Y630D03*
X3283Y530D03*
X3283Y430D03*
X3283Y330D03*
X4258Y255D03*
X4258Y355D03*
X4258Y455D03*
X4258Y555D03*
G54D14*
X2833Y2730D03*
X2933Y2730D03*
X3033Y2730D03*
G54D10*
X3883Y880D03*
X3883Y480D03*
X4383Y1155D03*
X4383Y1055D03*
X4383Y955D03*
G54D14*
X2458Y1853D03*
X2458Y1555D03*
G54D10*
X4033Y1006D03*
X4033Y1406D03*
G54D14*
X3708Y2207D03*
X3708Y2505D03*
G54D10*
X4033Y880D03*
X4033Y480D03*
G54D12*
X1983Y4630D03*
X1983Y4530D03*
X1983Y4430D03*
X1983Y4330D03*
X1983Y4230D03*
X1983Y4130D03*
G54D10*
X3133Y3355D03*
X3133Y3055D03*
X3033Y3355D03*
X3033Y3055D03*
X2933Y3355D03*
X2933Y3055D03*
X2833Y3355D03*
X2833Y3055D03*
X2733Y3355D03*
X2733Y3055D03*
X2633Y3355D03*
X2633Y3055D03*
X2533Y3355D03*
X2533Y3055D03*
G54D12*
X1258Y4630D03*
X1258Y4530D03*
X1258Y4430D03*
X1258Y4330D03*
X1258Y4230D03*
X1258Y4130D03*
G54D19*
X3383Y1805D03*
X3383Y1405D03*
G54D14*
X3333Y2730D03*
X3433Y2730D03*
X3533Y2730D03*
G54D19*
X3558Y2205D03*
X3158Y2205D03*
G54D10*
X3558Y3855D03*
X3858Y3855D03*
X3558Y3755D03*
X3858Y3755D03*
X3558Y3655D03*
X3858Y3655D03*
X3558Y3555D03*
X3858Y3555D03*
X1858Y3880D03*
X2158Y3880D03*
X1858Y3780D03*
X2158Y3780D03*
X1858Y3680D03*
X2158Y3680D03*
X1858Y3580D03*
X2158Y3580D03*
X3133Y3980D03*
X3133Y3580D03*
G54D19*
X2808Y2430D03*
X2808Y2030D03*
G54D10*
X2508Y3930D03*
X2808Y3930D03*
X2508Y3830D03*
X2808Y3830D03*
X2508Y3730D03*
X2808Y3730D03*
X2508Y3630D03*
X2808Y3630D03*
G54D14*
X2333Y2730D03*
X2433Y2730D03*
X2533Y2730D03*
G54D12*
X2283Y630D03*
X2283Y530D03*
X2283Y430D03*
X2283Y330D03*
G54D10*
X633Y1105D03*
X233Y1105D03*
X4883Y3380D03*
X4583Y3380D03*
X4883Y3480D03*
X4583Y3480D03*
X4883Y3580D03*
X4583Y3580D03*
X4883Y3680D03*
X4583Y3680D03*
X633Y1005D03*
X233Y1005D03*
X4883Y3930D03*
X4583Y3930D03*
X4883Y4030D03*
X4583Y4030D03*
X4883Y4130D03*
X4583Y4130D03*
X4883Y4230D03*
X4583Y4230D03*
X633Y805D03*
X233Y805D03*
X1133Y5455D03*
X1533Y5455D03*
G54D21*
X1908Y4980D03*
X2008Y4980D03*
X2108Y4980D03*
X2208Y4980D03*
X2308Y4980D03*
X2408Y4980D03*
X2508Y4980D03*
X2608Y4980D03*
X2708Y4980D03*
X2808Y4980D03*
X2908Y4980D03*
X3008Y4980D03*
X3008Y5580D03*
X2908Y5580D03*
X2808Y5580D03*
X2708Y5580D03*
X2608Y5580D03*
X2508Y5580D03*
X2408Y5580D03*
X2308Y5580D03*
X2208Y5580D03*
X2108Y5580D03*
X2008Y5580D03*
X1908Y5580D03*
G54D10*
X308Y3430D03*
X308Y3330D03*
X308Y3230D03*
G54D12*
X4383Y4455D03*
X4283Y4455D03*
X4183Y4455D03*
X4083Y4455D03*
X3983Y4455D03*
X3883Y4455D03*
X3783Y4455D03*
X3683Y4455D03*
G54D10*
X2133Y1480D03*
X1833Y1480D03*
X2133Y1580D03*
X1833Y1580D03*
X2133Y1680D03*
X1833Y1680D03*
X2133Y1780D03*
X1833Y1780D03*
X2133Y1880D03*
X1833Y1880D03*
X2133Y1980D03*
X1833Y1980D03*
X2133Y2080D03*
X1833Y2080D03*
X2133Y2180D03*
X1833Y2180D03*
G54D12*
X308Y3680D03*
X308Y3580D03*
G54D10*
X4933Y5355D03*
X4633Y5355D03*
X4933Y5455D03*
X4633Y5455D03*
X4933Y5555D03*
X4633Y5555D03*
X4933Y5655D03*
X4633Y5655D03*
X3158Y2605D03*
X2758Y2605D03*
X3258Y2605D03*
X3658Y2605D03*
X2158Y2605D03*
X1758Y2605D03*
X2258Y2605D03*
X2658Y2605D03*
X2183Y4005D03*
X1783Y4005D03*
X3933Y3430D03*
X3533Y3430D03*
X2283Y3905D03*
X2283Y3505D03*
X3858Y3980D03*
X3458Y3980D03*
G54D13*
X2933Y3905D03*
X2933Y4005D03*
G54D22*
X1108Y5280D03*
G54D23*
X5008Y805D03*
G54D22*
X5208Y2880D03*
X5208Y3980D03*
G54D24*
X3708Y1806D03*
G54D22*
X2033Y380D03*
G54D24*
X4583Y2080D03*
G54D23*
X2283Y905D03*
G54D22*
X3533Y630D03*
G54D24*
X4583Y1630D03*
X5333Y1630D03*
G54D22*
X4708Y4680D03*
X5208Y4480D03*
G54D24*
X1833Y2730D03*
X5333Y1180D03*
G54D23*
X2708Y905D03*
G54D24*
X2458Y2429D03*
X4983Y1180D03*
G54D23*
X3658Y3230D03*
X1408Y2955D03*
G54D22*
X1633Y5755D03*
G54D24*
X4983Y1630D03*
G54D23*
X3558Y905D03*
G54D22*
X4058Y355D03*
G54D24*
X4983Y2080D03*
G54D22*
X1808Y380D03*
G54D24*
X5333Y2080D03*
G54D22*
X4308Y5005D03*
G54D23*
X3133Y905D03*
G54D22*
X2783Y630D03*
X2533Y630D03*
X1808Y630D03*
X5058Y555D03*
X2708Y4630D03*
G54D23*
X2283Y3280D03*
G54D22*
X2033Y630D03*
X3033Y630D03*
X4483Y255D03*
X533Y4630D03*
G54D24*
X4583Y1180D03*
G54D25*
X1184Y5755D03*
G54D26*
X333Y2705D03*
G54D22*
X3508Y4730D03*
X4833Y555D03*
X5208Y3380D03*
G54D23*
X4283Y780D03*
G54D22*
X3883Y355D03*
X3283Y630D03*
X4258Y255D03*
G54D24*
X2833Y2730D03*
X2458Y1854D03*
X3708Y2206D03*
G54D22*
X1983Y4630D03*
G54D23*
X3133Y3355D03*
G54D22*
X1258Y4630D03*
G54D24*
X3333Y2730D03*
G54D23*
X3558Y3855D03*
X1858Y3880D03*
X2508Y3930D03*
G54D24*
X2333Y2730D03*
G54D22*
X2283Y630D03*
G54D23*
X4883Y3380D03*
X4883Y3930D03*
G54D22*
X4383Y4455D03*
G54D23*
X2133Y1480D03*
G54D22*
X308Y3680D03*
G54D23*
X4933Y5355D03*
G04 End of Mask0*
M02*