; NON-PLATED HOLES START AT T1
; THROUGH (PLATED) HOLES START AT T100
M48
INCH
T1C0.100000
T2C0.157000
T100C0.040000
T101C0.038000
T102C0.060000
T103C0.042000
T104C0.042251
T105C0.015748
T106C0.035000
T107C0.031497
T108C0.036000
T109C0.030000
T110C0.039370
%
T1
X005076Y004802
X013076Y004802
T2
X011076Y001802
X007076Y001802
T100
X028076Y024302
X026076Y016302
X031576Y022052
X030076Y016302
X033826Y014052
X035576Y022052
X028076Y020302
X033826Y018052
T101
X018076Y003802
X032826Y004302
X022826Y006302
X025326Y004302
X048076Y046802
X050576Y002552
X044826Y004552
X032826Y003302
X027076Y043302
X012576Y045302
X052076Y033802
X005326Y043302
X030326Y005302
X051076Y046802
X027826Y005302
X040576Y003552
X041826Y044552
X045076Y050052
X046076Y050052
X022826Y004302
X030326Y003302
X012576Y044302
X052076Y028802
X042576Y005552
X048326Y003552
X027076Y044302
X038826Y044552
X019826Y042302
X038076Y047302
X018076Y005302
X040576Y002552
X027826Y006302
X042576Y004552
X043076Y050052
X052076Y036802
X050576Y003552
X032826Y005302
X036076Y047302
X042826Y044552
X038826Y002552
X035326Y004302
X027826Y003302
X010076Y052802
X052076Y044802
X005326Y046302
X047076Y046802
X025326Y003302
X030326Y006302
X003076Y036802
X052076Y043802
X018076Y006302
X012576Y043302
X035326Y005302
X020326Y002802
X042576Y003552
X015326Y057552
X020326Y003802
X027076Y041302
X039076Y047302
X022826Y003302
X037076Y047302
X012576Y041302
X030326Y004302
X052076Y039802
X052076Y042802
X012576Y046302
X027076Y045302
X037826Y044552
X044826Y003552
X050076Y046802
X050576Y004552
X020326Y006302
X043826Y044552
X044076Y050052
X052076Y032802
X049076Y046802
X040826Y044552
X035076Y047302
X020326Y005302
X005326Y044302
X052076Y046802
X025326Y006302
X052076Y037802
X005326Y041302
X052076Y027802
X048326Y004552
X035326Y003302
X019826Y041302
X035326Y006302
X025326Y005302
X019826Y045302
X052076Y038802
X052076Y026802
X047076Y050052
X027076Y042302
X052076Y025802
X052076Y030802
X011076Y052802
X039826Y044552
X016326Y057552
X044826Y002552
X003076Y035802
X005326Y045302
X052076Y041802
X018076Y002802
X042576Y002552
X027826Y004302
X050576Y005552
X036826Y044552
X044826Y005552
X019826Y044302
X048326Y005552
X038826Y003552
X032826Y006302
X019826Y046302
X022826Y005302
X012576Y042302
X052076Y031802
X027076Y046302
X048326Y002552
X005326Y042302
X019826Y043302
T102
X012076Y005802
X008076Y005802
X006076Y005802
X010076Y005802
T103
X053326Y018802
X037076Y021052
X049826Y015302
X023326Y027302
X045826Y011802
X045826Y016302
X037076Y025052
X028326Y027302
X053326Y009802
X053326Y011802
X024326Y027302
X049826Y009802
X037076Y018072
X029326Y027302
X035326Y027302
X024576Y015552
X053326Y015302
X030326Y027302
X019326Y027302
X045826Y010802
X045826Y020802
X049826Y018802
X049826Y010802
X053326Y016302
X020326Y027302
X024576Y024282
X049826Y011802
X053326Y019802
X049826Y020802
X024576Y021302
X034326Y027302
X033326Y027302
X053326Y020802
X049826Y014302
X049826Y016302
X049826Y019802
X053326Y010802
X037076Y022072
X053326Y014302
X045826Y009802
X045826Y014302
X045826Y015302
X024576Y018532
X045826Y019802
X025326Y027302
X045826Y018802
X018326Y027302
T104
X006076Y057552
X008076Y057552
X009076Y057552
T105
X002076Y016052
X048076Y048052
X004826Y016302
X002076Y014552
X005076Y025302
T106
X014076Y009052
X014076Y013052
X021826Y034302
X021326Y018802
X048826Y041302
X011076Y013052
X044076Y052052
X041826Y020802
X025326Y030552
X041826Y011552
X002326Y009052
X018576Y035802
X011326Y019302
X023826Y039052
X049326Y055552
X013076Y022052
X040326Y008802
X011326Y054552
X022826Y029802
X028826Y042052
X015826Y034552
X021576Y036802
X012326Y019302
X017826Y029802
X018076Y007552
X023826Y035052
X043826Y011552
X038826Y008802
X046326Y054552
X016326Y014052
X042826Y034302
X050076Y008052
X028326Y033552
X046826Y031802
X041826Y007802
X047826Y027802
X014076Y027552
X003076Y033302
X042826Y024802
X022826Y039052
X049326Y053552
X002326Y010052
X021326Y015802
X017076Y023052
X013326Y017552
X014326Y015802
X025076Y038302
X035576Y011052
X018326Y020802
X034576Y039802
X018326Y021802
X038576Y035552
X043826Y022802
X040326Y004802
X020076Y007552
X022576Y016802
X045076Y056052
X002326Y011052
X017076Y024052
X027326Y033552
X049326Y056552
X028326Y030552
X047826Y031802
X032576Y026052
X006326Y008052
X009826Y054552
X031326Y011052
X026326Y033552
X031326Y039802
X002826Y029302
X017076Y007552
X022826Y035052
X018326Y014802
X021826Y032802
X039326Y034302
X038576Y036552
X043826Y026802
X015326Y014052
X013076Y023052
X016826Y038552
X012326Y017552
X018326Y016802
X048826Y039302
X015326Y054552
X016826Y034552
X034326Y037802
X021326Y016802
X006326Y010052
X044076Y056052
X017826Y032802
X018826Y032802
X025326Y033552
X040325Y014055
X016826Y032802
X043826Y030302
X019076Y011552
X039326Y010052
X003076Y034302
X031326Y035802
X020076Y011552
X042826Y026802
X049326Y054552
X038576Y037552
X011076Y009052
X021326Y017802
X021326Y014802
X016826Y029802
X021576Y035802
X015326Y015802
X016076Y011552
X013076Y013052
X028076Y039302
X022576Y020802
X020826Y032802
X041826Y026802
X033326Y033802
X048826Y034802
X035576Y009052
X017076Y011552
X014076Y029552
X002326Y008052
X043826Y009552
X015076Y011552
X025076Y037302
X048826Y027802
X042826Y018802
X017826Y034302
X015076Y007552
X039326Y014052
X048826Y042302
X038826Y004802
X022826Y011052
X031576Y026052
X018576Y037802
X018076Y011552
X021826Y029802
X040325Y010055
X018326Y017802
X013076Y024052
X035576Y038552
X003076Y032302
X045826Y041302
X013076Y009052
X046326Y056552
X019076Y007552
X031326Y033552
X022826Y009052
X045826Y036802
X042076Y012802
X041826Y018802
X045826Y039302
X021326Y021802
X017576Y026052
X046326Y055552
X013076Y021052
X025076Y036302
X013326Y019302
X012076Y009052
X014326Y017552
X025076Y039302
X018576Y023802
X048826Y036802
X035576Y036552
X042826Y028802
X043826Y018802
X026326Y030552
X017826Y040052
X012076Y013052
X013326Y015802
X043826Y020802
X043826Y024802
X042826Y020802
X022576Y026052
X021576Y038802
X030326Y035802
X022826Y032802
X048826Y035802
X046826Y027802
X019826Y029802
X041826Y034302
X027326Y030552
X045826Y040302
X041826Y030302
X042826Y030302
X022576Y023802
X017076Y022052
X029326Y033552
X041326Y036052
X045826Y033802
X042326Y036052
X017076Y021052
X030326Y039802
X048826Y040302
X028076Y037302
X021326Y019802
X018326Y015802
X045826Y035802
X016076Y007552
X041826Y009552
X041826Y028802
X036576Y026052
X042826Y022802
X041826Y010552
X030326Y033552
X015826Y038552
X032826Y042052
X018576Y038802
X035576Y037552
X020826Y029802
X027076Y009052
X014326Y014052
X028076Y036302
X018576Y036802
X021826Y040052
X006826Y029302
X042826Y007802
X018326Y018802
X043826Y034302
X050076Y007052
X027076Y011052
X031326Y030552
X043826Y010552
X033326Y037802
X036576Y030302
X018326Y019802
X046326Y053552
X029326Y030552
X042076Y016802
X021326Y020802
X038576Y039802
X006326Y011052
X042326Y040052
X035576Y035552
X045076Y052052
X038576Y038552
X043826Y028802
X045826Y034802
X041826Y024802
X030326Y030552
X035326Y034302
X021576Y037802
X019826Y032802
X048826Y031802
X031326Y009052
X034326Y033802
X045826Y042302
X028076Y038302
X026576Y026052
X021576Y026052
X041326Y040052
X027576Y026052
X005826Y054552
X006326Y009052
X036576Y032302
X018826Y029802
X048826Y033802
X041826Y022802
T107
X012826Y057552
X011842Y057552
T108
X003326Y025052
X009326Y015052
X003326Y026052
X003326Y013052
X009326Y020052
X009326Y021052
X003326Y020052
X003326Y021052
X009326Y025052
X009326Y024052
X003326Y016052
X003326Y017052
X003326Y022052
X003326Y018052
X009326Y022052
X003326Y019052
X003326Y024052
X003326Y014052
X009326Y027052
X003326Y023052
X009326Y017052
X003326Y027052
X009326Y014052
X009326Y019052
X009326Y018052
X009326Y026052
X003326Y015052
X009326Y016052
X009326Y023052
X009326Y013052
T109
X045826Y032554
X031826Y055804
X045826Y031552
X023826Y040052
X051078Y048802
X027075Y047802
X010576Y025052
X040326Y038554
X046326Y052052
X028076Y047802
X034576Y045052
X047328Y052052
X040326Y037552
X013576Y047552
X017076Y014802
X029326Y039052
X046826Y038052
X029326Y040054
X031826Y054802
X044076Y048802
X050076Y048802
X022825Y040052
X035578Y045052
X010576Y024050
X017076Y015804
X045078Y048802
X029326Y037052
X012575Y047552
X045825Y038052
X029326Y038054
T110
X027076Y049802
X025076Y049802
X027076Y055802
X023076Y055802
X024076Y055802
X026076Y049802
X021076Y055802
X030076Y049802
X019076Y055802
X020076Y049802
X023076Y049802
X029076Y055802
X022076Y055802
X020076Y055802
X024076Y049802
X019076Y049802
X028076Y049802
X029076Y049802
X030076Y055802
X022076Y049802
X028076Y055802
X026076Y055802
X025076Y055802
X021076Y049802
T00
M30
